HIERARCHY
ROOT Root
{
  OFFSET 0.0 0.0 0.0
  CHANNELS 6 Xposition Yposition Zposition Zrotation Yrotation Xrotation
  JOINT Hips
  {
    OFFSET 0.0 100.0 0.0
    CHANNELS 6 Xposition Yposition Zposition Zrotation Yrotation Xrotation
    JOINT Spine1
    {
      OFFSET 5.003913 -0.037094 -0.013727
      CHANNELS 3 Zrotation Yrotation Xrotation
      JOINT Spine2
      {
        OFFSET 7.125363 -1e-06 0.0
        CHANNELS 3 Zrotation Yrotation Xrotation
        JOINT Chest
        {
          OFFSET 7.594027 1e-06 0.0
          CHANNELS 3 Zrotation Yrotation Xrotation
          JOINT Neck1
          {
            OFFSET 26.313086 -0.460272 -0.181672
            CHANNELS 3 Zrotation Yrotation Xrotation
            JOINT Neck2
            {
              OFFSET 8.045911 0.0 0.0
              CHANNELS 3 Zrotation Yrotation Xrotation
              JOINT Head
              {
                OFFSET 6.432774 0.0 0.0
                CHANNELS 3 Zrotation Yrotation Xrotation
                JOINT HeadEnd
                {
                  OFFSET 16.169773 0.06451 0.00362
                  CHANNELS 3 Zrotation Yrotation Xrotation
                }
                JOINT Jaw
                {
                  OFFSET 0.108741 3.12938 0.002639
                  CHANNELS 3 Zrotation Yrotation Xrotation
                }
                JOINT LeftEye
                {
                  OFFSET 4.45173 8.166359 3.206392
                  CHANNELS 3 Zrotation Yrotation Xrotation
                }
                JOINT RightEye
                {
                  OFFSET 4.436895 8.135758 -3.222429
                  CHANNELS 3 Zrotation Yrotation Xrotation
                }
              }
            }
          }
          JOINT LeftShoulder
          {
            OFFSET 23.218927 5.195579 1.621656
            CHANNELS 3 Zrotation Yrotation Xrotation
            JOINT LeftArm
            {
              OFFSET 15.902118 2e-06 -2e-06
              CHANNELS 3 Zrotation Yrotation Xrotation
              JOINT LeftForeArm
              {
                OFFSET 28.739307 0.0 -1e-06
                CHANNELS 3 Zrotation Yrotation Xrotation
                JOINT LeftHand
                {
                  OFFSET 27.093981 -4e-06 0.0
                  CHANNELS 3 Zrotation Yrotation Xrotation
                  JOINT LeftHandThumb1
                  {
                    OFFSET 2.276781 3.380274 0.83384
                    CHANNELS 3 Zrotation Yrotation Xrotation
                    JOINT LeftHandThumb2
                    {
                      OFFSET 4.705309 -1e-06 -1e-06
                      CHANNELS 3 Zrotation Yrotation Xrotation
                      JOINT LeftHandThumb3
                      {
                        OFFSET 2.798515 0.0 3e-06
                        CHANNELS 3 Zrotation Yrotation Xrotation
                        JOINT LeftHandThumbEnd
                        {
                          OFFSET 3.180793 4e-06 -4e-06
                          CHANNELS 3 Zrotation Yrotation Xrotation
                        }
                      }
                    }
                  }
                  JOINT LeftHandIndex1
                  {
                    OFFSET 3.247786 2.352677 0.137192
                    CHANNELS 3 Zrotation Yrotation Xrotation
                    JOINT LeftHandIndex2
                    {
                      OFFSET 6.367095 1e-06 0.0
                      CHANNELS 3 Zrotation Yrotation Xrotation
                      JOINT LeftHandIndex3
                      {
                        OFFSET 3.662364 0.0 0.0
                        CHANNELS 3 Zrotation Yrotation Xrotation
                        JOINT LeftHandIndex4
                        {
                          OFFSET 2.329242 4e-06 -4e-06
                          CHANNELS 3 Zrotation Yrotation Xrotation
                          JOINT LeftHandIndexEnd
                          {
                            OFFSET 2.767823 1e-06 0.0
                            CHANNELS 3 Zrotation Yrotation Xrotation
                          }
                        }
                      }
                    }
                  }
                  JOINT LeftHandMiddle1
                  {
                    OFFSET 3.163612 0.945023 -0.406112
                    CHANNELS 3 Zrotation Yrotation Xrotation
                    JOINT LeftHandMiddle2
                    {
                      OFFSET 6.276789 3e-06 0.0
                      CHANNELS 3 Zrotation Yrotation Xrotation
                      JOINT LeftHandMiddle3
                      {
                        OFFSET 4.35652 -1e-06 4e-06
                        CHANNELS 3 Zrotation Yrotation Xrotation
                        JOINT LeftHandMiddle4
                        {
                          OFFSET 2.996877 0.0 8e-06
                          CHANNELS 3 Zrotation Yrotation Xrotation
                          JOINT LeftHandMiddleEnd
                          {
                            OFFSET 2.323256 3e-06 -4e-06
                            CHANNELS 3 Zrotation Yrotation Xrotation
                          }
                        }
                      }
                    }
                  }
                  JOINT LeftHandRing1
                  {
                    OFFSET 2.882606 -0.309162 0.107445
                    CHANNELS 3 Zrotation Yrotation Xrotation
                    JOINT LeftHandRing2
                    {
                      OFFSET 6.033198 0.0 4e-06
                      CHANNELS 3 Zrotation Yrotation Xrotation
                      JOINT LeftHandRing3
                      {
                        OFFSET 4.350578 3e-06 0.0
                        CHANNELS 3 Zrotation Yrotation Xrotation
                        JOINT LeftHandRing4
                        {
                          OFFSET 2.651321 2e-06 -7e-06
                          CHANNELS 3 Zrotation Yrotation Xrotation
                          JOINT LeftHandRingEnd
                          {
                            OFFSET 1.937663 1e-06 -4e-06
                            CHANNELS 3 Zrotation Yrotation Xrotation
                          }
                        }
                      }
                    }
                  }
                  JOINT LeftHandPinky1
                  {
                    OFFSET 2.865315 -1.525436 0.575687
                    CHANNELS 3 Zrotation Yrotation Xrotation
                    JOINT LeftHandPinky2
                    {
                      OFFSET 5.54936 1e-06 -8e-06
                      CHANNELS 3 Zrotation Yrotation Xrotation
                      JOINT LeftHandPinky3
                      {
                        OFFSET 3.070974 0.0 -4e-06
                        CHANNELS 3 Zrotation Yrotation Xrotation
                        JOINT LeftHandPinky4
                        {
                          OFFSET 1.549672 1e-06 0.0
                          CHANNELS 3 Zrotation Yrotation Xrotation
                          JOINT LeftHandPinkyEnd
                          {
                            OFFSET 1.952123 0.0 0.0
                            CHANNELS 3 Zrotation Yrotation Xrotation
                          }
                        }
                      }
                    }
                  }
                }
              }
            }
          }
          JOINT RightShoulder
          {
            OFFSET 23.161716 5.296122 -1.380114
            CHANNELS 3 Zrotation Yrotation Xrotation
            JOINT RightArm
            {
              OFFSET -16.027195 -2e-06 1.1e-05
              CHANNELS 3 Zrotation Yrotation Xrotation
              JOINT RightForeArm
              {
                OFFSET -28.736639 4e-06 2e-06
                CHANNELS 3 Zrotation Yrotation Xrotation
                JOINT RightHand
                {
                  OFFSET -27.133619 6e-06 0.0
                  CHANNELS 3 Zrotation Yrotation Xrotation
                  JOINT RightHandThumb1
                  {
                    OFFSET -2.274328 -3.351035 -0.83067
                    CHANNELS 3 Zrotation Yrotation Xrotation
                    JOINT RightHandThumb2
                    {
                      OFFSET -4.703594 -3e-06 2e-06
                      CHANNELS 3 Zrotation Yrotation Xrotation
                      JOINT RightHandThumb3
                      {
                        OFFSET -2.794935 -4e-06 -3e-06
                        CHANNELS 3 Zrotation Yrotation Xrotation
                        JOINT RightHandThumbEnd
                        {
                          OFFSET -3.183852 4e-06 1e-06
                          CHANNELS 3 Zrotation Yrotation Xrotation
                        }
                      }
                    }
                  }
                  JOINT RightHandIndex1
                  {
                    OFFSET -3.253496 -2.33755 -0.127667
                    CHANNELS 3 Zrotation Yrotation Xrotation
                    JOINT RightHandIndex2
                    {
                      OFFSET -6.344434 0.0 0.0
                      CHANNELS 3 Zrotation Yrotation Xrotation
                      JOINT RightHandIndex3
                      {
                        OFFSET -3.654871 0.0 -8e-06
                        CHANNELS 3 Zrotation Yrotation Xrotation
                        JOINT RightHandIndex4
                        {
                          OFFSET -2.327586 -1e-06 0.0
                          CHANNELS 3 Zrotation Yrotation Xrotation
                          JOINT RightHandIndexEnd
                          {
                            OFFSET -2.770001 3e-06 8e-06
                            CHANNELS 3 Zrotation Yrotation Xrotation
                          }
                        }
                      }
                    }
                  }
                  JOINT RightHandMiddle1
                  {
                    OFFSET -3.168223 -0.944764 0.411762
                    CHANNELS 3 Zrotation Yrotation Xrotation
                    JOINT RightHandMiddle2
                    {
                      OFFSET -6.266691 -1e-06 -4e-06
                      CHANNELS 3 Zrotation Yrotation Xrotation
                      JOINT RightHandMiddle3
                      {
                        OFFSET -4.348901 0.0 0.0
                        CHANNELS 3 Zrotation Yrotation Xrotation
                        JOINT RightHandMiddle4
                        {
                          OFFSET -3.00024 2e-06 -4e-06
                          CHANNELS 3 Zrotation Yrotation Xrotation
                          JOINT RightHandMiddleEnd
                          {
                            OFFSET -2.321477 -4e-06 -4e-06
                            CHANNELS 3 Zrotation Yrotation Xrotation
                          }
                        }
                      }
                    }
                  }
                  JOINT RightHandRing1
                  {
                    OFFSET -2.885654 0.293261 -0.119232
                    CHANNELS 3 Zrotation Yrotation Xrotation
                    JOINT RightHandRing2
                    {
                      OFFSET -6.032835 -1e-06 -4e-06
                      CHANNELS 3 Zrotation Yrotation Xrotation
                      JOINT RightHandRing3
                      {
                        OFFSET -4.33881 0.0 -4e-06
                        CHANNELS 3 Zrotation Yrotation Xrotation
                        JOINT RightHandRing4
                        {
                          OFFSET -2.654903 -4e-06 -4e-06
                          CHANNELS 3 Zrotation Yrotation Xrotation
                          JOINT RightHandRingEnd
                          {
                            OFFSET -1.935122 0.0 4e-06
                            CHANNELS 3 Zrotation Yrotation Xrotation
                          }
                        }
                      }
                    }
                  }
                  JOINT RightHandPinky1
                  {
                    OFFSET -2.866241 1.503904 -0.60527
                    CHANNELS 3 Zrotation Yrotation Xrotation
                    JOINT RightHandPinky2
                    {
                      OFFSET -5.553177 -2e-06 0.0
                      CHANNELS 3 Zrotation Yrotation Xrotation
                      JOINT RightHandPinky3
                      {
                        OFFSET -3.062664 -1e-06 -4e-06
                        CHANNELS 3 Zrotation Yrotation Xrotation
                        JOINT RightHandPinky4
                        {
                          OFFSET -1.546529 2e-06 4e-06
                          CHANNELS 3 Zrotation Yrotation Xrotation
                          JOINT RightHandPinkyEnd
                          {
                            OFFSET -1.952341 0.0 -4e-06
                            CHANNELS 3 Zrotation Yrotation Xrotation
                          }
                        }
                      }
                    }
                  }
                }
              }
            }
          }
        }
      }
    }
    JOINT LeftLeg
    {
      OFFSET -8.443107 2.567604 10.043214
      CHANNELS 3 Zrotation Yrotation Xrotation
      JOINT LeftShin
      {
        OFFSET 43.229198 1e-06 -1e-06
        CHANNELS 3 Zrotation Yrotation Xrotation
        JOINT LeftFoot
        {
          OFFSET 42.298611 1e-06 1e-06
          CHANNELS 3 Zrotation Yrotation Xrotation
          JOINT LeftToeBase
          {
            OFFSET 14.165858 1e-06 0.0
            CHANNELS 3 Zrotation Yrotation Xrotation
            JOINT LeftToeEnd
            {
              OFFSET 6.7141 -0.234461 0.0
              CHANNELS 3 Zrotation Yrotation Xrotation
            }
          }
        }
      }
    }
    JOINT RightLeg
    {
      OFFSET -8.303923 2.592729 -10.047278
      CHANNELS 3 Zrotation Yrotation Xrotation
      JOINT RightShin
      {
        OFFSET -43.369682 0.0 1e-06
        CHANNELS 3 Zrotation Yrotation Xrotation
        JOINT RightFoot
        {
          OFFSET -42.260784 4e-06 2e-06
          CHANNELS 3 Zrotation Yrotation Xrotation
          JOINT RightToeBase
          {
            OFFSET -14.222245 -2e-06 -1e-06
            CHANNELS 3 Zrotation Yrotation Xrotation
            JOINT RightToeEnd
            {
              OFFSET -6.660062 0.232574 -2e-06
              CHANNELS 3 Zrotation Yrotation Xrotation
            }
          }
        }
      }
    }
  }
}
MOTION
Frames: 4
Frame Time: 0.03333333333333333
0.0 0.0 0.0 0.0 -0.0 0.0 5.390028 10.728044 112.451042 -63.169014 -84.972466 -110.979454 -5.459248 -0.339609 -0.326958 -12.473563 0.222686 -0.28091 12.129094 -1.29667 -1.454974 2.54246 -4.392088 2.376409 -2.152335 0.032857 -5.149844 -23.218004 -1.67533 -5.140575 5e-06 -0.0 -0.0 -0.255091 0.099112 0.031062 -0.177323 0.280008 0.049289 -0.105759 -0.082749 0.020794 -5.114137 -79.205101 13.43004 10.171448 -11.709512 -75.408813 123.78894 2.64667 -0.226297 -12.908336 16.709135 3.884483 17.636633 -26.322737 52.411213 -19.466665 -14.3956 29.410395 -1e-06 -8.774822 -2e-06 15.841286 -18.360491 6.248504 -0.609777 -1.795654 -3.889329 -4.807089 -11.046811 -2.937852 5e-06 -20.976023 -1e-06 -5.019969 -25.033562 -4.031883 5e-06 0.0 0.0 -10.634537 -5.686971 -3.565588 10.573277 -17.922951 -3.113901 3e-06 -13.821212 0.0 -0.501775 -31.181507 -4.027018 -11.59161 -58.778614 7.434587 -13.982717 -7.150198 -2.875043 13.772732 -8.401494 -3.21824 0.347736 -34.211555 0.771654 -0.963028 -17.733372 2.621021 -1e-06 -1e-06 0.0 -17.346422 -20.095219 -4.201784 21.757561 -1.638376 3.866429 0.0 -6.338825 0.0 -1.697589 -22.591747 -6.194008 -1e-06 -4e-06 -2e-06 152.85788 -73.445511 36.589634 10.624233 -15.123048 -78.387886 129.150085 -0.105268 1.911771 -14.972851 16.367744 8.81146 22.182116 -20.375891 49.933315 -16.701811 -16.743526 28.476528 -4e-06 -12.690603 -1e-06 15.754426 -17.366783 2.586185 -0.105919 -1.513856 -4.275882 -5.039042 -5.612872 -2.953556 5e-06 -11.020524 -2e-06 -6.111297 -15.895334 -3.840472 -0.0 -1e-06 0.0 -10.283371 -5.680288 -4.341839 11.028293 -11.302406 -2.372633 -1.384269 -14.23858 -6.320121 -0.625439 -26.924191 -3.827603 -4.262868 -50.087711 -3.801492 -13.708524 -7.363476 -3.72094 18.141148 -14.052739 -3.242675 6e-06 -18.78727 -1e-06 -0.429712 -8.456046 2.555502 1e-06 0.0 -1e-06 -15.923534 -20.094482 -5.473585 30.41921 -7.190826 1.735925 2e-06 -8.162928 -1e-06 -1.861901 -22.861469 -6.167944 1e-06 -1e-06 -1e-06 162.709335 -25.199181 -71.42128 22.188814 -18.138937 41.392647 -60.382854 18.580853 -0.297745 -6.841849 1.578191 2.827368 -1.0 0.0 0.0 -6.811907 -16.937195 -149.74707 -15.93605 -11.032259 134.578049 -87.25901 15.140829 -16.670835 -10.167731 0.478974 1.62348 -1.000001 -0.0 -0.0 
0.0 0.0 0.0 0.0 -0.0 0.0 5.407192 10.717994 112.479866 -63.213669 -84.941925 -111.034729 -5.466455 -0.32899 -0.347603 -12.487371 0.218641 -0.269894 12.127413 -1.257644 -1.404772 2.593526 -4.480654 2.369996 -2.155825 0.023907 -5.162453 -23.338394 -1.566793 -5.109617 5e-06 -0.0 -0.0 -0.257043 0.085123 0.03841 -0.16198 0.258325 0.063569 -0.09484 -0.088555 0.021338 -5.553281 -79.136299 13.940403 10.149419 -11.760944 -75.377357 123.873146 2.646398 -0.197024 -13.000782 16.983932 4.036832 17.636627 -26.322733 52.411201 -19.46666 -14.3956 29.410395 -2e-06 -8.774822 -2e-06 15.819808 -18.384781 6.281251 -0.609776 -1.795653 -3.889328 -4.80709 -11.046811 -2.93785 4e-06 -20.976021 -0.0 -5.01997 -25.03356 -4.031882 6e-06 -0.0 -0.0 -10.634536 -5.68697 -3.565587 10.573277 -17.922949 -3.113902 2e-06 -13.821212 -0.0 -0.501778 -31.181505 -4.027015 -11.618608 -58.807117 7.467282 -13.982717 -7.150198 -2.875043 13.772733 -8.401491 -3.218242 0.347733 -34.211555 0.771654 -0.963026 -17.733372 2.621019 -1e-06 -0.0 0.0 -17.34642 -20.095219 -4.201783 21.757561 -1.638374 3.866428 1e-06 -6.338825 0.0 -1.697589 -22.591751 -6.194008 -2e-06 -3e-06 -1e-06 153.059418 -73.377205 36.478565 10.696251 -15.19936 -78.332001 129.229095 -0.040708 1.922542 -15.012031 16.49465 8.899323 22.182117 -20.375898 49.933319 -16.701815 -16.743528 28.476532 -3e-06 -12.690601 -0.0 15.827555 -17.385902 2.581652 -0.105921 -1.513856 -4.275881 -5.039041 -5.612872 -2.953557 5e-06 -11.020523 -2e-06 -6.111298 -15.895334 -3.84047 -0.0 -2e-06 -0.0 -10.283369 -5.680288 -4.341838 11.028294 -11.302406 -2.372633 -1.384268 -14.238583 -6.320121 -0.625437 -26.924194 -3.827603 -4.276467 -50.167137 -3.801049 -13.708526 -7.363476 -3.720938 18.141151 -14.05274 -3.242675 6e-06 -18.787273 -1e-06 -0.429712 -8.456047 2.555503 1e-06 -1e-06 -1e-06 -15.923534 -20.094484 -5.473583 30.41921 -7.190824 1.735926 1e-06 -8.162927 -1e-06 -1.861903 -22.861479 -6.167943 1e-06 -1e-06 -1e-06 162.791351 -25.166327 -71.659973 22.01174 -18.159874 41.675758 -60.40097 18.623404 -0.209886 -6.903728 1.568271 2.818112 -0.999999 0.0 -0.0 -6.792454 -16.944094 -149.075592 -15.604081 -11.125452 133.72937 -86.834419 15.33558 -16.593172 -10.062406 0.482331 1.623242 -1.000001 0.0 -0.0 
0.0 0.0 0.0 0.0 -0.0 0.0 5.409288 10.70354 112.501022 -63.310207 -84.925613 -111.026382 -5.473241 -0.312877 -0.358068 -12.500022 0.207437 -0.266791 12.128608 -1.237309 -1.353299 2.614582 -4.554057 2.35498 -2.155196 0.039349 -5.151256 -23.443058 -1.500701 -5.091185 6e-06 0.0 0.0 -0.258739 0.076837 0.042551 -0.151536 0.244976 0.071883 -0.087498 -0.091094 0.021454 -5.974809 -79.068253 14.393654 10.161258 -11.800519 -75.258598 123.943031 2.658326 -0.150432 -13.082541 17.262735 4.181973 17.636635 -26.322729 52.411198 -19.466663 -14.395596 29.410393 -1e-06 -8.774821 -2e-06 15.814364 -18.397362 6.294905 -0.609777 -1.795654 -3.889327 -4.807088 -11.046812 -2.93785 4e-06 -20.976021 -1e-06 -5.019969 -25.03356 -4.031882 6e-06 1e-06 0.0 -10.634535 -5.686972 -3.565589 10.573272 -17.922951 -3.1139 3e-06 -13.821213 -1e-06 -0.501777 -31.181522 -4.02702 -11.627483 -58.816158 7.483896 -13.982714 -7.150199 -2.875044 13.77273 -8.401493 -3.21824 0.347731 -34.211555 0.771655 -0.963029 -17.733372 2.62102 -1e-06 -1e-06 1e-06 -17.34642 -20.095221 -4.201783 21.757557 -1.638374 3.866429 1e-06 -6.338825 0.0 -1.69759 -22.591747 -6.194006 -0.0 -4e-06 -1e-06 153.133377 -73.321884 36.490128 10.808937 -15.264903 -78.242493 129.284195 0.023125 1.899012 -14.992747 16.671404 9.049629 22.182112 -20.375891 49.933319 -16.701811 -16.743528 28.476528 -3e-06 -12.690601 -1e-06 15.916333 -17.414932 2.580367 -0.10592 -1.513856 -4.275881 -5.03904 -5.612872 -2.953557 4e-06 -11.020523 -2e-06 -6.111296 -15.895336 -3.840471 1e-06 -1e-06 0.0 -10.283369 -5.680288 -4.341838 11.028292 -11.302406 -2.372633 -1.384268 -14.238581 -6.320121 -0.625441 -26.924187 -3.8276 -4.29162 -50.248508 -3.795348 -13.708522 -7.363475 -3.720939 18.141146 -14.052739 -3.242674 8e-06 -18.78727 -2e-06 -0.429712 -8.456045 2.555501 1e-06 -0.0 0.0 -15.923534 -20.094484 -5.473585 30.419201 -7.190825 1.735927 2e-06 -8.162925 -1e-06 -1.8619 -22.861467 -6.167944 1e-06 -2e-06 -1e-06 162.880295 -25.158882 -71.827812 21.901854 -18.116545 41.824982 -60.358982 18.558765 -0.134033 -6.933025 1.556611 2.815887 -0.999999 -1e-06 0.0 -6.815232 -16.971025 -148.422958 -15.350982 -11.283905 132.921722 -86.355576 15.549091 -16.466541 -9.9503 0.482494 1.626002 -1.000003 0.0 -0.0 
0.0 0.0 0.0 0.0 -0.0 0.0 5.40261 10.666323 112.514984 -63.536613 -84.928276 -110.87513 -5.476297 -0.298652 -0.367067 -12.503252 0.197518 -0.264695 12.130713 -1.247267 -1.305784 2.601664 -4.593925 2.327779 -2.155077 0.064179 -5.10881 -23.50873 -1.47966 -5.072346 4e-06 0.0 0.0 -0.258686 0.075001 0.042995 -0.142732 0.240495 0.073664 -0.081704 -0.089453 0.020769 -6.371769 -79.011261 14.766438 10.209108 -11.819378 -75.060707 123.993332 2.697831 -0.110343 -13.174046 17.542482 4.266268 17.636633 -26.322725 52.411182 -19.46666 -14.395598 29.410389 -1e-06 -8.774822 -2e-06 15.807772 -18.395576 6.286894 -0.609776 -1.795654 -3.889327 -4.807089 -11.046807 -2.937849 4e-06 -20.976015 -1e-06 -5.01997 -25.033552 -4.031881 6e-06 -1e-06 -0.0 -10.634535 -5.68697 -3.565586 10.573276 -17.922947 -3.1139 3e-06 -13.821206 0.0 -0.501778 -31.181498 -4.027016 -11.615984 -58.801899 7.470221 -13.982715 -7.150198 -2.875041 13.772731 -8.40149 -3.21824 0.347735 -34.211544 0.771654 -0.963029 -17.733366 2.62102 -1e-06 -1e-06 0.0 -17.346422 -20.095217 -4.20178 21.757563 -1.638376 3.866428 1e-06 -6.338823 1e-06 -1.697589 -22.59174 -6.194006 -1e-06 -3e-06 -1e-06 153.086533 -73.272644 36.610165 10.964791 -15.352047 -78.121605 129.357224 0.089549 1.855057 -14.916109 16.908186 9.23294 22.18211 -20.375891 49.933319 -16.701811 -16.743525 28.476526 -4e-06 -12.690598 -0.0 15.977795 -17.449511 2.584399 -0.105921 -1.513856 -4.275881 -5.039041 -5.61287 -2.953557 4e-06 -11.02052 -2e-06 -6.111298 -15.895334 -3.840471 -1e-06 -1e-06 0.0 -10.283369 -5.680288 -4.341838 11.028293 -11.302402 -2.372633 -1.384268 -14.238579 -6.320121 -0.625437 -26.924183 -3.827603 -4.305888 -50.326557 -3.78021 -13.708522 -7.363475 -3.72094 18.141146 -14.052739 -3.242676 9e-06 -18.787266 -3e-06 -0.429711 -8.456045 2.555504 0.0 -0.0 -1e-06 -15.923534 -20.094482 -5.473586 30.419207 -7.190823 1.735927 2e-06 -8.162927 -2e-06 -1.861899 -22.861467 -6.167942 0.0 -2e-06 0.0 162.991837 -25.151628 -72.001205 21.815401 -18.058474 41.931549 -60.29694 18.447321 -0.093676 -6.923936 1.551138 2.81399 -1.000001 -1e-06 -0.0 -6.864631 -17.026114 -147.887848 -15.184945 -11.469979 132.295609 -85.743973 15.760317 -16.282118 -9.838772 0.479144 1.628648 -1.000002 -0.0 -0.0 
